<?xml version="1.0" encoding="utf-8"?>
<!-- Svg Vector Icons : http://www.onlinewebfonts.com/icon -->
<!DOCTYPE svg PUBLIC "-//W3C//DTD SVG 1.1//EN" "http://www.w3.org/Graphics/SVG/1.1/DTD/svg11.dtd">
<svg version="1.1" xmlns="http://www.w3.org/2000/svg" xmlns:xlink="http://www.w3.org/1999/xlink" x="0px" y="0px" viewBox="0 0 1000 1000" enable-background="new 0 0 1000 1000" xml:space="preserve">
<metadata> Svg Vector Icons : http://www.onlinewebfonts.com/icon </metadata>
<g><g transform="translate(0.000000,511.000000) scale(0.100000,-0.100000)" fill="#61DAFB"><path d="M4567.4,3561l-52.5-50.4v-614.9c0-572.9-2.1-619-42-682c-48.3-79.7-174.2-167.9-264.4-186.8l-63-12.6l-56.7,224.5c-109.1,447-310.6,740.8-596,877.2c-132.2,60.9-159.5,67.2-352.5,67.2c-232.9,0-388.2-42-637.9-167.9C1470.1,2495,406.2,656.7,148.1-1055.7c-81.8-539.3-56.7-1215,56.7-1573.9c136.4-423.9,426-684.1,826.8-747c270.7-42,583.4,2.1,1068.1,146.9c1084.9,327.4,1689.3,747.1,1985.1,1376.6c182.6,386.1,207.8,612.8,188.9,1773.2c-6.3,467.9-16.8,912.8-23.1,988.4L4238,1047l102.8,16.8c149,21,402.9,125.9,537.2,218.2l115.4,81.8l109.1-73.4c144.8-96.5,312.7-170,493.1-214l146.9-37.8l-2.1-81.8c-37.8-2048.1-35.7-2201.3,54.6-2516.1c224.5-782.7,875.1-1303.1,2090.1-1666.2c669.4-201.4,1036.7-216.1,1385-56.6c256,117.5,463.8,415.5,551.9,789c224.5,950.6-44.1,2348.2-698.8,3622c-627.4,1223.4-1456.3,1999.8-2195,2058.6c-507.8,39.9-854.1-283.3-1024.1-952.7l-56.7-218.2l-62.9,12.6c-88.1,16.8-214.1,104.9-262.3,184.7c-39.9,63-42,109.1-42,682v614.9l-52.5,50.4c-62.9,63-134.3,67.2-207.7,8.4l-54.6-42v-642.1c0-415.5,8.4-669.4,23.1-719.8c56.6-186.8,272.8-381.9,501.5-449.1l94.4-29.4l-6.3-153.2c-2.1-83.9-8.4-157.4-12.6-161.6c-14.7-14.7-249.7,60.9-363.1,117.5c-60.9,29.4-159.5,94.4-218.2,144.8c-165.8,140.6-216.1,140.6-379.8-6.3c-44.1-37.8-134.3-98.6-201.4-132.2c-121.7-60.9-356.7-138.5-373.5-123.8c-4.2,4.2-10.5,77.6-12.6,161.6l-6.3,153.2l83.9,27.3c212,63,400.8,212,482.6,377.7c37.8,77.6,42,136.4,48.3,757.6l6.3,675.7l-56.7,44.1C4701.7,3628.1,4630.4,3626,4567.4,3561z M3383.9,2816c421.8-216.1,579.2-1131.1,560.3-3263.1c-10.5-986.3-10.5-986.3-167.9-1307.3c-193-394.5-635.8-740.8-1254.9-986.3c-239.2-94.4-682-235-881.4-279.1c-220.3-48.3-539.3-52.5-686.2-8.4C723-2959,551-2721.8,471.2-2356.7c-58.8,260.2-52.5,1003.1,10.5,1345.1c249.7,1364,984.2,2801.5,1779.5,3479.3C2670.4,2816,3113.2,2952.4,3383.9,2816z M7115,2822.3c956.9-264.4,2067-2039.7,2394.3-3825.5c63-333.6,79.7-938,35.7-1227.6c-50.4-321.1-123.8-499.4-266.5-644.2c-149-146.9-258.1-184.7-543.5-184.7c-241.3,0-449.1,44.1-862.5,178.4c-705.1,230.8-1091.2,444.9-1408.1,782.7c-111.2,117.5-184.7,220.3-245.5,342.1c-157.4,314.8-157.4,321.1-167.9,1298.9c-21,2329.3,153.2,3185.5,677.8,3317.7C6808.6,2879,6966,2864.3,7115,2822.3z"/><path d="M2817.3,2001.8c-212-107-178.4-411.3,54.6-488.9c138.5-44.1,304.3,65,333.7,222.4c16.8,96.5-44.1,214.1-138.5,266.5C2976.8,2050.1,2909.6,2050.1,2817.3,2001.8z"/><path d="M1826.8,1160.3c-69.2-69.3-81.8-94.4-81.8-172.1c0-159.5,104.9-268.6,258.1-270.7c159.5,0,266.5,104.9,266.5,262.3c0,153.2-113.3,262.3-272.8,262.3C1921.3,1242.2,1896.1,1229.6,1826.8,1160.3z"/><path d="M3033.5,740.6c-132.2-79.8-151.1-289.6-33.6-405c115.4-117.5,327.4-94.4,409.2,44.1c67.2,115.4,31.5,293.8-73.4,367.2C3270.6,793.1,3113.2,788.9,3033.5,740.6z"/><path d="M2164.7-42.1c-258.1-176.3-86-560.3,214-476.3c115.4,31.5,184.7,125.9,184.7,251.8c0,88.1-10.5,115.4-69.2,178.4C2401.8,12.5,2273.8,31.3,2164.7-42.1z"/><path d="M1113.3-581.4c-71.4-71.4-81.8-92.3-81.8-180.5c0-88.1,10.5-109.1,81.8-180.5c67.2-69.2,94.4-81.8,167.9-81.8c167.9,0,274.9,102.8,274.9,262.3c0,159.5-107,262.3-274.9,262.3C1207.8-499.6,1180.5-512.1,1113.3-581.4z"/><path d="M2901.3-950.7c-144.8-123.8-123.8-356.7,42-442.8c224.5-115.4,480.5,125.9,365.1,348.3C3228.6-892,3027.2-845.8,2901.3-950.7z"/><path d="M1713.5-1681c-90.2-90.2-109.1-165.8-71.3-274.9c79.7-226.7,402.9-239.2,493.1-18.9c44.1,104.9,21,207.8-65.1,293.8c-60.8,60.9-81.8,69.2-178.4,69.2C1795.4-1611.7,1774.4-1620.1,1713.5-1681z"/><path d="M6930.3,2001.8c-79.7-42-149-153.2-149-235c0-125.9,140.6-262.3,272.8-262.3s272.8,136.4,272.8,262.3c0,83.9-71.4,195.2-149,235C7087.7,2050.1,7018.4,2050.1,6930.3,2001.8z"/><path d="M7849.5,1206.5c-165.8-100.7-163.7-371.4,2.1-457.5c73.4-37.8,203.6-39.9,268.6-2.1c77.6,42,130.1,138.5,130.1,241.3c0,77.7-12.6,102.8-81.8,172.1c-69.2,71.3-94.4,81.8-172.1,81.8C7946,1242.2,7878.8,1225.4,7849.5,1206.5z"/><path d="M6621.8,709.2c-60.9-60.9-71.4-86-71.4-170c0-121.7,48.3-209.8,142.7-253.9c167.9-79.7,354.6,23.1,375.6,205.6c21,178.4-86.1,289.6-279.1,289.6C6707.9,780.5,6682.7,770,6621.8,709.2z"/><path d="M7587.1-16.9c-151.1-60.8-207.8-291.7-100.7-417.6c159.5-191,470.1-79.8,470.1,170C7954.4-79.9,7759.2,52.3,7587.1-16.9z"/><path d="M8560.8-533.1c-163.7-88.1-159.5-373.5,4.2-459.6c33.6-16.8,98.6-31.5,146.9-31.5c67.1,0,100.7,14.7,163.7,71.4c71.4,67.2,77.6,79.7,77.6,191c0,111.2-6.3,123.8-77.6,191c-65,58.8-94.4,71.3-167.9,71.3C8657.4-501.7,8592.3-514.3,8560.8-533.1z"/><path d="M6747.8-967.5c-134.3-121.7-115.4-319,39.9-413.4c281.2-172.1,558.2,218.3,306.4,430.2c-50.4,39.9-88.1,52.5-167.9,52.5C6838-898.3,6810.7-908.8,6747.8-967.5z"/><path d="M8025.7-1613.8c-81.8-23.1-167.9-123.8-184.7-216.1c-29.4-151.1,102.8-306.4,262.3-306.4c159.5,0,291.7,155.3,262.3,306.4c-14.7,83.9-98.6,188.9-163.7,207.7C8111.8-1597.1,8092.9-1595,8025.7-1613.8z"/></g></g>
</svg>
